<?xml version="1.0" standalone="no"?>
<!DOCTYPE svg PUBLIC "-//W3C//DTD SVG 20010904//EN"
 "http://www.w3.org/TR/2001/REC-SVG-20010904/DTD/svg10.dtd">
<svg version="1.0" xmlns="http://www.w3.org/2000/svg"
 width="2000.000000pt" height="2000.000000pt" viewBox="0 0 2000.000000 2000.000000"
 preserveAspectRatio="xMidYMid meet">
<metadata>
Created by potrace 1.15, written by Peter Selinger 2001-2017
</metadata>
<g transform="translate(0.000000,2000.000000) scale(0.100000,-0.100000)"
fill="#FF0000" stroke="none">
<path d="M9495 19994 c-209 -13 -509 -39 -685 -60 -2232 -265 -4292 -1266
-5885 -2859 -1594 -1595 -2596 -3657 -2860 -5890 -53 -455 -60 -580 -60 -1185
0 -605 7 -730 60 -1185 344 -2909 1944 -5512 4390 -7144 1312 -875 2792 -1420
4360 -1606 455 -53 580 -60 1185 -60 605 0 730 7 1185 60 2233 264 4295 1266
5890 2860 1594 1595 2596 3657 2860 5890 53 455 60 580 60 1185 0 605 -7 730
-60 1185 -344 2909 -1943 5512 -4390 7144 -1312 875 -2792 1420 -4360 1606
-423 49 -561 57 -1110 60 -286 1 -547 1 -580 -1z m415 -2184 c68 -165 126
-300 129 -300 3 0 60 127 125 283 66 155 122 286 126 290 4 4 59 6 123 5 l116
-3 -183 -390 c-100 -214 -197 -418 -216 -453 -46 -88 -113 -155 -185 -189 -56
-26 -68 -28 -190 -28 -71 0 -142 3 -157 8 l-28 7 0 101 c0 100 0 100 23 93 85
-27 161 -31 211 -10 36 15 73 57 82 93 5 16 -41 127 -165 402 -94 208 -171
381 -171 385 0 3 53 6 119 6 l118 0 123 -300z m1151 220 c216 -28 394 -52 395
-53 3 -5 -23 -177 -28 -183 -4 -3 -67 2 -142 12 -75 10 -138 16 -140 13 -2 -2
-28 -195 -58 -427 -29 -233 -56 -428 -59 -434 -4 -6 -44 -5 -115 4 -107 13
-109 14 -107 38 1 14 25 207 53 429 28 222 49 409 47 415 -3 7 -49 17 -108 24
-57 7 -119 16 -138 19 l-33 6 6 71 c9 85 15 116 26 116 5 0 185 -23 401 -50z
m-1729 -492 c38 -292 67 -533 65 -534 -3 -3 -221 -32 -224 -30 -1 0 -26 196
-57 435 -30 238 -57 435 -59 437 -4 4 -378 -44 -382 -48 -1 -2 22 -198 53
-436 30 -238 53 -434 51 -437 -6 -6 -218 -29 -223 -24 -8 8 -137 1052 -131
1058 6 5 763 107 820 110 19 1 23 -26 87 -531z m2794 276 l232 -66 -19 -67
c-11 -36 -22 -76 -25 -88 -4 -13 -10 -23 -16 -23 -5 0 -88 23 -185 51 -96 27
-177 48 -180 45 -12 -12 -63 -209 -56 -216 4 -4 78 -27 163 -50 85 -24 159
-46 164 -51 11 -10 -33 -179 -46 -179 -5 0 -80 20 -166 45 -86 25 -162 45
-168 45 -6 0 -26 -53 -44 -117 -18 -65 -35 -123 -37 -129 -3 -7 65 -31 178
-62 100 -28 184 -54 187 -57 5 -4 -21 -114 -39 -161 -7 -21 -13 -20 -299 61
-160 46 -294 86 -297 89 -4 4 184 684 274 988 l13 46 68 -19 c37 -10 171 -49
298 -85z m-4474 -164 c21 -64 25 -86 16 -92 -7 -4 -90 -33 -184 -65 l-171 -57
35 -106 c19 -58 36 -107 38 -109 1 -2 78 22 170 53 93 31 171 53 175 48 4 -4
17 -38 29 -77 13 -38 25 -75 27 -81 3 -7 -63 -34 -166 -69 -94 -32 -171 -61
-171 -66 0 -9 81 -242 86 -248 2 -2 85 24 184 59 100 34 183 60 184 59 13 -15
56 -172 50 -178 -5 -4 -136 -51 -292 -104 -279 -95 -283 -96 -291 -74 -14 37
-330 971 -333 985 -2 9 85 44 282 112 157 54 289 97 294 96 5 -1 22 -40 38
-86z m5173 -45 c61 -29 95 -50 92 -58 -3 -6 -84 -187 -181 -401 -97 -214 -175
-390 -174 -392 15 -14 294 -132 299 -127 3 5 84 181 179 393 95 212 177 389
181 393 6 8 183 -64 203 -83 4 -5 -62 -164 -149 -357 -87 -191 -168 -371 -181
-399 l-23 -52 150 -67 c82 -37 151 -66 153 -64 1 2 82 182 180 399 98 217 179
396 181 398 4 4 188 -78 199 -88 9 -9 -423 -980 -435 -980 -7 0 -1220 547
-1226 553 -2 2 86 201 195 443 110 241 208 460 220 487 11 26 25 47 30 47 5 0
53 -20 107 -45z m-5952 -707 c142 -246 257 -451 257 -456 0 -10 -170 -107
-187 -107 -9 0 -414 689 -534 907 -8 14 7 26 88 72 76 43 100 53 109 43 6 -6
126 -213 267 -459z m-919 -138 c54 -93 99 -170 101 -170 2 0 43 20 91 45 200
102 357 95 464 -21 151 -164 123 -366 -71 -509 -64 -47 -331 -205 -347 -205
-9 0 -526 890 -534 918 -3 12 181 123 193 116 3 -2 50 -80 103 -174z m8632
-102 c134 -95 243 -177 244 -181 0 -13 -94 -146 -104 -147 -5 0 -78 49 -162
110 l-154 109 -23 -32 c-83 -112 -108 -149 -105 -157 2 -5 67 -54 146 -110
l143 -101 -42 -57 c-22 -31 -47 -66 -54 -76 -17 -23 -8 -27 -187 101 -64 45
-119 83 -122 83 -10 0 -156 -211 -151 -220 3 -5 73 -56 155 -115 83 -59 150
-108 150 -111 0 -2 -24 -37 -54 -79 l-53 -74 -251 177 c-139 98 -249 182 -247
189 8 24 610 863 619 863 5 0 118 -78 252 -172z m-8934 -493 c173 -220 317
-405 321 -411 6 -11 -152 -144 -171 -144 -4 0 -70 79 -146 176 -76 96 -142
174 -147 172 -5 -2 -81 -59 -168 -128 l-160 -124 33 -41 c18 -22 82 -104 144
-181 l111 -142 -83 -65 c-46 -36 -87 -67 -93 -69 -5 -2 -137 159 -293 357
-156 198 -304 387 -331 421 l-48 60 91 71 91 71 22 -26 c11 -15 70 -89 129
-165 72 -92 112 -135 120 -130 28 18 316 247 316 252 0 3 -57 78 -125 165 -69
88 -124 163 -123 167 2 4 41 37 87 73 68 53 87 64 97 54 6 -7 153 -193 326
-413z m9563 -50 c122 -32 239 -116 319 -228 39 -56 86 -138 86 -152 0 -2 -40
-25 -88 -49 l-88 -44 -38 74 c-94 182 -227 240 -381 165 -121 -60 -263 -240
-281 -357 -17 -116 65 -223 238 -309 l97 -48 -60 -69 c-34 -37 -69 -68 -79
-68 -28 0 -141 62 -208 114 -238 182 -281 417 -123 658 64 97 130 169 205 223
136 97 264 125 401 90z m-10749 -510 c54 -32 119 -103 134 -149 12 -37 10
-117 -4 -147 -6 -14 2 -12 40 7 89 45 187 26 273 -52 122 -109 134 -265 33
-419 -37 -57 -311 -379 -323 -380 -7 0 -809 694 -809 701 0 9 197 233 274 312
149 153 268 193 382 127z m11613 -303 c145 -167 261 -304 259 -306 -1 -1 -34
-29 -72 -61 l-68 -59 -42 45 c-22 24 -66 73 -97 109 l-55 64 -328 -285 c-180
-156 -331 -285 -336 -287 -9 -3 -151 159 -148 169 2 4 147 132 323 284 176
152 324 281 329 286 5 5 -29 52 -82 113 -51 57 -92 108 -92 113 0 12 130 125
140 121 3 -2 125 -139 269 -306z m-5844 -82 c997 -51 1900 -351 2707 -902
1810 -1235 2656 -3456 2128 -5583 -255 -1030 -823 -1959 -1627 -2665 -1286
-1129 -3042 -1554 -4708 -1140 -920 228 -1754 701 -2429 1376 -1204 1204
-1740 2890 -1456 4581 300 1786 1545 3314 3240 3978 523 205 1088 326 1650
354 229 12 276 12 495 1z m-6240 -658 c237 -151 435 -280 442 -286 16 -15 -85
-178 -106 -170 -26 9 -454 286 -559 361 -57 41 -106 73 -108 70 -2 -2 90 -194
204 -427 l209 -424 -71 -113 c-47 -76 -76 -112 -86 -110 -26 7 -895 568 -893
577 6 20 106 165 112 163 15 -4 526 -335 594 -385 38 -27 70 -48 72 -46 2 2
-89 192 -201 422 -113 231 -203 425 -200 432 16 42 141 222 150 217 6 -4 205
-130 441 -281z m12636 20 c131 -205 167 -276 184 -360 19 -91 6 -146 -48 -208
-48 -54 -143 -104 -200 -104 -41 0 -101 22 -129 47 -21 19 -21 19 -7 -46 15
-69 -2 -122 -56 -180 -25 -26 -68 -61 -97 -77 -45 -25 -64 -29 -128 -29 -148
0 -232 71 -409 348 -62 98 -114 185 -115 194 -1 10 156 116 439 298 242 156
445 284 450 284 6 1 58 -74 116 -167z m532 -898 c21 -48 36 -91 35 -96 -3 -9
-335 -162 -538 -248 -63 -26 -133 -56 -155 -65 l-40 -18 468 -57 c257 -32 470
-60 472 -62 15 -15 113 -244 107 -249 -6 -5 -912 -417 -960 -436 -8 -3 -27 26
-52 81 -22 48 -40 90 -40 95 0 9 389 188 575 263 66 27 131 54 145 60 20 9
-62 22 -450 69 -261 32 -475 58 -476 58 -3 2 -103 228 -106 240 -2 9 151 83
477 231 264 120 485 219 490 219 6 0 27 -38 48 -85z m-14193 40 c44 -20 80
-39 80 -42 0 -3 -25 -61 -56 -130 -31 -68 -52 -128 -47 -133 4 -4 183 -87 398
-184 214 -97 391 -177 392 -179 3 -3 -85 -197 -93 -205 -2 -2 -179 76 -393
173 -215 96 -395 177 -402 178 -6 2 -37 -53 -68 -121 -31 -69 -61 -126 -67
-128 -20 -7 -165 67 -162 82 7 31 324 725 331 725 4 0 44 -16 87 -36z m-168
-1023 c201 -69 270 -237 204 -491 -17 -64 -20 -93 -12 -95 6 -3 85 -25 176
-51 91 -25 168 -48 171 -50 10 -6 -56 -219 -67 -218 -12 2 -1018 286 -1022
289 -7 6 103 377 128 430 53 115 123 183 213 206 47 12 144 3 209 -20z m14729
-276 c82 -42 143 -113 183 -215 36 -90 125 -415 115 -421 -19 -11 -1019 -292
-1024 -287 -7 6 -66 211 -62 214 1 1 88 27 192 57 121 34 191 59 193 68 1 8
-6 38 -15 68 l-18 54 -95 27 c-52 15 -156 44 -231 64 l-136 38 -32 112 c-17
62 -31 117 -31 123 0 6 115 -25 256 -68 141 -44 260 -79 265 -79 5 0 13 17 18
38 15 53 63 125 106 158 21 16 67 39 104 52 76 26 156 25 212 -3z m-14737
-780 c292 -81 423 -304 360 -613 -38 -187 -133 -302 -300 -364 -83 -31 -302
-31 -417 0 -195 53 -321 168 -363 332 -33 129 -3 344 63 457 53 92 154 167
264 198 71 20 307 14 393 -10z m14741 -706 c99 -27 150 -105 143 -219 -7 -121
-74 -184 -209 -196 -83 -8 -140 8 -190 53 -69 63 -88 191 -39 271 48 79 185
121 295 91z m-14461 -676 c3 -59 3 -110 -1 -114 -5 -3 -203 -11 -441 -16 -238
-6 -434 -12 -436 -14 -1 -2 -1 -91 2 -198 l4 -194 132 7 c72 3 272 9 444 12
l312 7 0 -115 0 -116 -287 -7 c-159 -4 -400 -8 -538 -9 l-250 -1 -10 415 c-6
228 -9 418 -5 422 5 7 544 24 866 26 l201 2 7 -107z m14414 -420 l513 -37 -7
-111 c-3 -60 -8 -112 -10 -115 -1 -3 -105 2 -231 12 -125 10 -239 17 -251 16
-19 -3 20 -41 212 -207 l236 -203 -1 -62 c-1 -33 -4 -90 -8 -124 l-6 -64 -237
211 c-131 116 -243 211 -249 211 -12 0 -534 -323 -556 -344 -9 -8 99 -81 454
-306 256 -162 469 -297 473 -300 6 -4 -45 -263 -54 -277 -1 -1 -246 -29 -546
-62 -300 -34 -555 -64 -567 -66 -29 -7 -29 -5 3 132 l25 111 133 7 133 7 42
182 c23 99 41 186 41 192 0 6 -49 39 -110 74 -75 43 -110 68 -110 80 0 10 12
67 26 127 14 59 30 160 35 223 6 64 15 120 22 126 7 6 116 73 242 149 127 76
248 150 270 164 l40 26 -265 20 -265 20 3 85 c4 131 9 151 35 146 12 -3 253
-22 535 -43z m-14374 -622 c38 -82 76 -233 76 -308 1 -266 -223 -453 -565
-470 -132 -7 -199 5 -294 53 -120 60 -206 175 -242 324 -26 108 -9 350 24 350
12 0 180 -32 184 -35 2 -1 -4 -33 -12 -71 -48 -226 25 -354 220 -386 117 -20
309 27 402 98 101 77 105 218 13 411 -44 94 -49 83 50 102 103 20 103 20 144
-68z m13966 -1512 c267 -105 488 -195 492 -198 8 -7 -61 -191 -71 -191 -9 0
-617 243 -683 274 -32 14 -58 23 -58 21 0 -3 126 -172 280 -375 154 -203 280
-374 280 -380 0 -11 -88 -241 -94 -248 -5 -4 -978 378 -990 389 -10 9 54 189
66 189 16 0 526 -203 642 -256 65 -29 114 -48 109 -41 -17 20 -517 680 -547
719 l-28 37 49 125 c26 69 52 126 58 126 5 0 228 -86 495 -191z m775 -440 c2
-3 -12 -47 -32 -97 l-37 -92 -45 5 c-61 8 -90 -9 -123 -70 -20 -37 -28 -64
-28 -104 0 -50 3 -57 40 -91 l39 -36 -34 -89 c-19 -48 -37 -90 -40 -93 -6 -6
-74 44 -98 72 -36 41 -57 100 -57 160 0 157 103 369 209 426 29 17 51 20 118
17 46 -2 85 -6 88 -8z m-1460 -874 c334 -192 360 -205 373 -188 7 10 40 66 73
126 34 59 64 105 67 103 16 -8 157 -89 160 -91 2 -2 -395 -695 -403 -703 -4
-4 -165 88 -165 94 0 2 32 59 71 126 38 66 66 124 62 128 -4 4 -174 103 -378
220 -203 116 -372 214 -374 216 -2 2 22 48 53 104 55 96 58 99 79 86 12 -8
184 -107 382 -221z m-590 -1055 c198 -188 361 -347 363 -354 1 -6 -32 -46 -75
-88 l-78 -77 -318 303 -317 303 -110 -112 c-61 -61 -110 -116 -110 -122 0 -6
142 -147 316 -313 l316 -303 -78 -78 c-43 -44 -82 -79 -86 -79 -4 0 -148 134
-319 298 -171 163 -314 297 -318 297 -3 0 -57 -52 -118 -116 l-113 -115 320
-304 c176 -168 320 -307 320 -310 0 -3 -36 -41 -79 -84 l-79 -79 -386 369
c-213 202 -385 372 -384 376 2 5 210 226 463 492 l460 483 25 -22 c14 -12 187
-176 385 -365z m-1246 -1169 c165 -233 298 -427 296 -431 -8 -13 -177 -132
-181 -127 -2 2 -68 94 -148 205 l-143 201 -7 -52 c-3 -29 -6 -158 -6 -288 0
-130 -3 -250 -6 -267 -5 -24 -25 -44 -101 -97 -52 -37 -96 -66 -97 -64 -2 2 0
108 5 234 4 127 8 271 8 320 l0 90 -324 105 c-178 58 -325 107 -325 110 0 5
163 123 197 143 6 4 150 -40 319 -98 169 -58 308 -104 310 -103 1 2 -67 100
-151 218 -84 118 -152 216 -150 218 1 2 43 31 91 66 66 47 92 61 101 52 6 -6
146 -202 312 -435z m-1146 -240 c149 -52 287 -211 364 -421 24 -65 28 -90 28
-190 0 -105 -2 -120 -28 -174 -15 -33 -44 -79 -63 -103 -48 -58 -158 -134
-250 -173 -270 -112 -502 -7 -654 298 -106 214 -105 402 4 550 42 57 130 128
206 167 124 64 285 83 393 46z m-883 -353 c6 -24 18 -65 26 -92 8 -27 14 -51
14 -53 0 -2 -16 -3 -35 -3 -87 0 -112 -46 -100 -190 8 -104 60 -522 80 -645 8
-51 10 -92 5 -95 -19 -11 -640 -183 -645 -179 -11 12 -294 1024 -287 1030 16
13 205 60 212 52 4 -4 60 -195 125 -424 l118 -416 121 35 c67 19 122 36 124
37 2 2 -8 77 -22 167 -80 522 -73 669 36 749 48 34 130 62 200 68 12 1 20 -11
28 -41z m-1064 -285 c-3 -10 -57 -261 -121 -557 -63 -297 -118 -542 -121 -545
-8 -8 -269 -39 -275 -32 -11 10 -511 1013 -507 1016 8 8 234 33 239 27 4 -4
28 -56 55 -116 27 -59 54 -111 62 -113 16 -7 365 36 373 45 4 4 16 63 29 132
12 69 22 126 23 127 2 1 206 29 235 32 8 1 11 -6 8 -16z"/>
<path d="M6268 16481 c-26 -10 -63 -29 -83 -41 -33 -21 -35 -24 -22 -44 7 -11
39 -67 71 -123 l57 -102 37 21 c106 61 159 130 147 191 -23 105 -98 140 -207
98z"/>
<path d="M4280 15389 c-28 -11 -83 -62 -140 -130 l-39 -46 89 -76 89 -77 62
72 c91 106 109 160 68 212 -22 28 -69 56 -91 55 -7 0 -24 -5 -38 -10z"/>
<path d="M4584 15111 c-31 -19 -159 -156 -159 -170 0 -4 45 -46 100 -94 77
-67 102 -84 113 -75 35 30 132 162 141 193 14 51 -3 98 -47 135 -44 36 -100
40 -148 11z"/>
<path d="M9820 12484 c-19 -2 -78 -9 -130 -15 -873 -99 -1657 -699 -1994
-1524 -127 -313 -181 -592 -181 -945 0 -281 28 -475 102 -720 240 -796 867
-1423 1663 -1663 245 -74 439 -102 720 -102 281 0 475 28 720 102 796 240
1423 867 1663 1663 74 245 102 439 102 720 0 281 -28 475 -102 720 -240 796
-867 1423 -1663 1663 -117 36 -266 68 -400 87 -78 11 -439 21 -500 14z"/>
<path d="M16389 14398 c-51 -33 -96 -62 -98 -63 -7 -7 76 -131 115 -172 31
-33 48 -43 73 -43 66 0 121 48 121 106 0 32 -44 126 -91 196 l-25 37 -95 -61z"/>
<path d="M16015 14159 c-60 -39 -112 -73 -113 -74 -9 -8 118 -183 148 -202 57
-39 133 -25 179 33 23 30 29 100 10 137 -22 44 -104 177 -109 177 -3 0 -54
-32 -115 -71z"/>
<path d="M2598 12474 c-16 -8 -36 -31 -47 -52 -19 -37 -51 -136 -51 -157 0 -7
61 -29 138 -50 75 -21 142 -40 148 -42 15 -6 44 101 44 163 0 31 -7 61 -20 82
-37 61 -149 91 -212 56z"/>
<path d="M17351 12193 c-46 -23 -71 -67 -71 -128 0 -55 33 -181 46 -179 32 5
251 68 257 74 5 4 -3 46 -17 93 -35 113 -73 157 -137 157 -24 0 -59 -8 -78
-17z"/>
<path d="M2455 11423 c-40 -9 -81 -27 -113 -50 -66 -49 -102 -170 -82 -270 17
-79 88 -151 180 -181 184 -61 374 -48 458 31 51 47 67 95 67 199 0 91 -2 99
-30 139 -59 84 -216 140 -382 138 -43 -1 -87 -3 -98 -6z"/>
<path d="M17185 8438 c-14 -62 -28 -122 -31 -133 -5 -20 -5 -20 221 -4 124 9
228 18 230 20 3 4 -66 45 -326 192 l-67 38 -27 -113z"/>
<path d="M13120 3714 c-90 -41 -138 -100 -154 -186 -16 -86 53 -272 142 -384
107 -134 266 -143 396 -24 107 99 93 271 -37 468 -97 146 -214 188 -347 126z"/>
<path d="M10986 2794 c-55 -7 -103 -15 -107 -16 -4 -2 36 -99 89 -215 l96
-213 38 223 c21 122 38 225 38 230 0 9 -34 7 -154 -9z"/>
</g>
</svg>
